<?xml version="1.0" encoding="utf-8"?>
<!-- Generator: Adobe Illustrator 26.0.1, SVG Export Plug-In . SVG Version: 6.00 Build 0)  -->
<svg version="1.1" id="레이어_1" xmlns="http://www.w3.org/2000/svg" xmlns:xlink="http://www.w3.org/1999/xlink" x="0px"
	 y="0px" viewBox="0 0 148.1 217.9" style="enable-background:new 0 0 148.1 217.9;" xml:space="preserve">
<style type="text/css">
	.st0{fill:#F7F0EB;}
	.st1{fill:none;stroke:#FF3B01;stroke-width:0.5;stroke-miterlimit:10;}
	.st2{fill:#F7F0EB;stroke:#FF3B01;stroke-width:0.5;stroke-miterlimit:10;}
	.st3{fill:#424242;}
	.st4{font-family:'Hatton-Regular';}
	.st5{font-size:10px;}
</style>
<rect y="0" class="st0" width="148.1" height="217.9"/>
<image style="overflow:visible;" width="298" height="298" xlink:href="../wk10_아카이빙/누끼-ugly/u딸기2.png"  transform="matrix(0.4401 0 0 0.4401 8.491 43.3983)">
</image>
<g>
	<polygon class="st1" points="129.7,8 18.4,8 7.1,19.3 7.1,198.6 18.4,209.9 129.7,209.9 141,198.6 141,19.3 	"/>
	<path class="st2" d="M141,173.1L141,173.1L141,173.1c-0.2,3.4-1.6,6.1-3.3,6.6c1.7,0.5,3.1,3.2,3.3,6.6v0v0
		c0.2-3.4,1.6-6.1,3.3-6.6C142.6,179.3,141.3,176.6,141,173.1z"/>
	<path class="st2" d="M7.1,31.6L7.1,31.6L7.1,31.6c-0.2,3.4-1.6,6.1-3.3,6.6c1.7,0.5,3.1,3.2,3.3,6.6v0v0c0.2-3.4,1.6-6.1,3.3-6.6
		C8.7,37.7,7.3,35,7.1,31.6z"/>
</g>
<g>
	<text transform="matrix(1 0 0 1 47.4607 196.0358)" class="st3 st4 st5">strawberry</text>
</g>
<g>
	<text transform="matrix(1 0 0 1 66.4399 27.6763)" class="st3 st4 st5">03</text>
</g>
</svg>
