<?xml version="1.0" encoding="utf-8"?>
<!-- Generator: Adobe Illustrator 26.0.1, SVG Export Plug-In . SVG Version: 6.00 Build 0)  -->
<svg version="1.1" id="레이어_1" xmlns="http://www.w3.org/2000/svg" xmlns:xlink="http://www.w3.org/1999/xlink" x="0px"
	 y="0px" viewBox="0 0 148.1 217.9" style="enable-background:new 0 0 148.1 217.9;" xml:space="preserve">
<style type="text/css">
	.st0{fill:#F7F0EB;}
	.st1{fill:none;stroke:#FF3B01;stroke-width:0.5;stroke-miterlimit:10;}
	.st2{fill:#F7F0EB;stroke:#FF3B01;stroke-width:0.5;stroke-miterlimit:10;}
	.st3{fill:#424242;}
	.st4{font-family:'Hatton-Regular';}
	.st5{font-size:10px;}
</style>
<rect class="st0" width="148.1" height="217.9"/>
<image style="overflow:visible;enable-background:new    ;" width="564" height="564" xlink:href="../wk11_아카이빙&amp;카드/예쁜과일/p토마토.png"  transform="matrix(0.2225 0 0 0.2225 11.3213 46.2287)">
</image>
<g>
	<polygon class="st1" points="18.4,8 129.7,8 141,19.3 141,198.6 129.7,209.9 18.4,209.9 7.1,198.6 7.1,19.3 	"/>
	<path class="st2" d="M7.1,173.1L7.1,173.1L7.1,173.1c0.2,3.4,1.6,6.1,3.3,6.6c-1.7,0.5-3.1,3.2-3.3,6.6l0,0l0,0
		c-0.2-3.4-1.6-6.1-3.3-6.6C5.5,179.3,6.8,176.6,7.1,173.1z"/>
	<path class="st2" d="M141,31.6L141,31.6L141,31.6c0.2,3.4,1.6,6.1,3.3,6.6c-1.7,0.5-3.1,3.2-3.3,6.6l0,0l0,0
		c-0.2-3.4-1.6-6.1-3.3-6.6C139.5,37.7,140.8,35,141,31.6z"/>
</g>
<g>
	<text transform="matrix(1 0 0 1 56.4509 196.0359)" class="st3 st4 st5">tomato</text>
</g>
<g>
	<text transform="matrix(1 0 0 1 66.02 27.676)" class="st3 st4 st5">06</text>
</g>
</svg>
