<?xml version="1.0" encoding="utf-8"?>
<!-- Generator: Adobe Illustrator 26.0.1, SVG Export Plug-In . SVG Version: 6.00 Build 0)  -->
<svg version="1.1" id="레이어_1" xmlns="http://www.w3.org/2000/svg" xmlns:xlink="http://www.w3.org/1999/xlink" x="0px"
	 y="0px" viewBox="0 0 148.1 217.9" style="enable-background:new 0 0 148.1 217.9;" xml:space="preserve">
<style type="text/css">
	.st0{fill:#F7F0EB;}
	.st1{fill:none;stroke:#FF3B01;stroke-width:0.5;stroke-miterlimit:10;}
	.st2{fill:#F7F0EB;stroke:#FF3B01;stroke-width:0.5;stroke-miterlimit:10;}
	.st3{fill:#424242;}
</style>
<rect class="st0" width="148.1" height="217.9"/>
<image style="overflow:visible;enable-background:new    ;" width="602" height="580" xlink:href="../wk11_아카이빙&amp;카드/예쁜과일/p셀러리.png"  transform="matrix(0.2245 0 0 0.2245 6.4935 43.8701)">
</image>
<g>
	<polygon class="st1" points="18.4,8 129.7,8 141,19.3 141,198.6 129.7,209.9 18.4,209.9 7.1,198.6 7.1,19.3 	"/>
	<path class="st2" d="M7.1,173.1L7.1,173.1L7.1,173.1c0.2,3.4,1.6,6.1,3.3,6.6c-1.7,0.5-3.1,3.2-3.3,6.6l0,0l0,0
		c-0.2-3.4-1.6-6.1-3.3-6.6C5.5,179.3,6.8,176.6,7.1,173.1z"/>
	<path class="st2" d="M141,31.6L141,31.6L141,31.6c0.2,3.4,1.6,6.1,3.3,6.6c-1.7,0.5-3.1,3.2-3.3,6.6l0,0l0,0
		c-0.2-3.4-1.6-6.1-3.3-6.6C139.5,37.7,140.8,35,141,31.6z"/>
</g>
<g>
	<g>
		<path class="st3" d="M62.6,191.1c1.1,0,1.8,0.7,2,1.4c-0.2,0.4-0.7,0.3-0.8-0.2c0-0.3-0.3-1-1.2-1c-1.1,0-1.6,0.9-1.6,2.3
			c0,1.2,0.5,2.4,1.8,2.4c1,0,1.6-0.8,1.9-1.7h0.1c-0.3,1-0.9,2-2.3,2c-1.4,0-2.5-1-2.5-2.6C60.1,192.1,61.1,191.1,62.6,191.1z"/>
		<path class="st3" d="M70.7,194.2c-0.3,1.2-1.1,2-2.4,2c-1.5,0-2.6-1-2.6-2.6s1.2-2.6,2.5-2.6c1.4,0,2.2,0.9,2.2,1.9h-3.8
			c0,0.2,0,0.4,0,0.5c0,1.2,0.6,2.4,1.9,2.4c1,0,1.6-0.7,2-1.7h0.2V194.2z M66.7,192.9h2.8c0-0.9-0.4-1.6-1.3-1.6
			C67.4,191.3,66.8,191.9,66.7,192.9z"/>
		<path class="st3" d="M72.6,188c-0.1,0.8-0.1,1.4-0.1,2v4.1c0,0.6,0,1.1,0.1,2h-1c0.1-0.8,0.1-1.4,0.1-2V190c0-0.6,0-1.1-0.1-2
			H72.6z"/>
		<path class="st3" d="M78.6,194.2c-0.3,1.2-1.1,2-2.4,2c-1.5,0-2.6-1-2.6-2.6s1.2-2.6,2.5-2.6c1.4,0,2.2,0.9,2.2,1.9h-3.8
			c0,0.2,0,0.4,0,0.5c0,1.2,0.6,2.4,1.9,2.4c1,0,1.6-0.7,2-1.7h0.2V194.2z M74.6,192.9h2.8c0-0.9-0.4-1.6-1.3-1.6
			C75.3,191.3,74.8,191.9,74.6,192.9z"/>
		<path class="st3" d="M82.2,191.9c-0.5-0.2-0.8-0.1-1.8,0.9v0.4v1c0,0.6,0,1.1,0.1,1.9h-1c0.1-0.8,0.1-1.3,0.1-1.9v-1
			c0-0.6,0-1.1-0.1-1.9h1c0,0.5-0.1,0.9-0.1,1.2c0.8-0.8,1.3-1.4,2.5-1.2C83,191.8,82.7,192.1,82.2,191.9z"/>
		<path class="st3" d="M88.1,191.3c-0.1,0.3-0.2,0.4-0.3,0.7l-1.4,4c-0.4,1.1-0.8,1.7-1.7,1.7c-0.4,0-0.8-0.1-1.2-0.4
			c-0.1-0.4,0.5-0.6,0.7-0.2c0.2,0.3,0.3,0.5,0.6,0.5c0.6,0,1-0.6,1.4-1.5l0,0h-0.8l-1.5-4c-0.1-0.3-0.2-0.4-0.3-0.7h1.1
			c0,0.3,0.1,0.4,0.2,0.7l1.5,3.8l1.3-3.8c0.1-0.3,0.1-0.4,0.2-0.7h0.2V191.3z"/>
	</g>
</g>
<g>
	<g>
		<path class="st3" d="M67.7,23.7c0-2.5,1.6-4.2,3.6-4.2s3.6,1.7,3.6,4.2s-1.6,4.2-3.6,4.2S67.7,26.2,67.7,23.7z M73.8,23.7
			c0-2.3-0.8-4-2.5-4s-2.5,1.7-2.5,4s0.8,4,2.5,4S73.8,26,73.8,23.7z"/>
		<path class="st3" d="M80.6,19.8L78,26.1c-0.3,0.7-0.4,1-0.5,1.5h-1c0.3-0.5,0.5-0.9,0.9-1.5l2.8-5.9h-2c-0.6,0-1.6,0.1-2.5,0.4
			l-0.7-1h5.6C80.6,19.6,80.6,19.8,80.6,19.8z"/>
	</g>
</g>
</svg>
