<?xml version="1.0" encoding="utf-8"?>
<!-- Generator: Adobe Illustrator 26.0.1, SVG Export Plug-In . SVG Version: 6.00 Build 0)  -->
<svg version="1.1" id="레이어_1" xmlns="http://www.w3.org/2000/svg" xmlns:xlink="http://www.w3.org/1999/xlink" x="0px"
	 y="0px" viewBox="0 0 148.1 217.9" style="enable-background:new 0 0 148.1 217.9;" xml:space="preserve">
<style type="text/css">
	.st0{fill:#F7F0EB;}
	.st1{fill:none;stroke:#FF3B01;stroke-width:0.5;stroke-miterlimit:10;}
	.st2{fill:#F7F0EB;stroke:#FF3B01;stroke-width:0.5;stroke-miterlimit:10;}
	.st3{fill:#424242;}
</style>
<rect class="st0" width="148.1" height="217.9"/>
<image style="overflow:visible;enable-background:new    ;" width="162" height="161" xlink:href="../wk10_아카이빙/누끼-ugly/u오이2.png"  transform="matrix(0.8628 3.792113e-04 3.792113e-04 0.8628 4.1424 46.5424)">
</image>
<g>
	<polygon class="st1" points="129.7,8 18.4,8 7.1,19.3 7.1,198.6 18.4,209.9 129.7,209.9 141,198.6 141,19.3 	"/>
	<path class="st2" d="M141,173.1L141,173.1L141,173.1c-0.2,3.4-1.6,6.1-3.3,6.6c1.7,0.5,3.1,3.2,3.3,6.6l0,0l0,0
		c0.2-3.4,1.6-6.1,3.3-6.6C142.6,179.3,141.3,176.6,141,173.1z"/>
	<path class="st2" d="M7.1,31.6L7.1,31.6L7.1,31.6c-0.2,3.4-1.6,6.1-3.3,6.6c1.7,0.5,3.1,3.2,3.3,6.6l0,0l0,0
		c0.2-3.4,1.6-6.1,3.3-6.6C8.7,37.7,7.3,35,7.1,31.6z"/>
</g>
<g>
	<g>
		<path class="st3" d="M53.9,191.1c1.1,0,1.8,0.7,2,1.4c-0.2,0.4-0.7,0.3-0.8-0.2c0-0.3-0.3-1-1.2-1c-1.1,0-1.6,0.9-1.6,2.3
			c0,1.2,0.5,2.4,1.8,2.4c1,0,1.6-0.8,1.9-1.7h0.1c-0.3,1-0.9,2-2.3,2c-1.4,0-2.5-1-2.5-2.6C51.4,192.1,52.4,191.1,53.9,191.1z"/>
		<path class="st3" d="M61.4,191.3v4.7h-0.9c0-0.5,0-0.8,0.1-1.1c-0.3,0.6-1,1.3-1.9,1.3c-1,0-1.5-0.6-1.5-1.9v-1.1
			c0-0.6,0-1-0.1-1.9h1v3.3c0,0.9,0.3,1.4,0.9,1.4c0.8,0,1.3-0.6,1.6-1.2v-0.6v-0.9c0-0.6,0-1-0.1-1.9h0.9V191.3z"/>
		<path class="st3" d="M64.9,191.1c1.1,0,1.8,0.7,2,1.4c-0.2,0.4-0.7,0.3-0.8-0.2c0-0.3-0.3-1-1.2-1c-1.1,0-1.6,0.9-1.6,2.3
			c0,1.2,0.5,2.4,1.8,2.4c1,0,1.6-0.8,1.9-1.7h0.1c-0.3,1-0.9,2-2.3,2s-2.5-1-2.5-2.6C62.5,192.1,63.5,191.1,64.9,191.1z"/>
		<path class="st3" d="M72.4,191.3v4.7h-0.9c0-0.5,0-0.8,0.1-1.1c-0.3,0.6-1,1.3-1.9,1.3c-1,0-1.5-0.6-1.5-1.9v-1.1
			c0-0.6,0-1-0.1-1.9h1v3.3c0,0.9,0.3,1.4,0.9,1.4c0.8,0,1.3-0.6,1.6-1.2v-0.6v-0.9c0-0.6,0-1-0.1-1.9h0.9V191.3z"/>
		<path class="st3" d="M79.4,194.1v-1.5c0-0.8-0.1-1.2-0.6-1.2c-0.6,0-1.1,0.6-1.4,1.2v0.2v1.3c0,0.6,0,1,0.1,1.9h-1
			c0.1-1,0.1-1.3,0.1-1.9v-1.5c0-0.8-0.1-1.2-0.6-1.2c-0.6,0-1.1,0.6-1.4,1.3v0.5v1c0,0.6,0,1.1,0.1,1.9h-1c0.1-0.8,0.1-1.3,0.1-1.9
			v-1c0-0.6,0-1.1-0.1-1.9h1c0,0.4-0.1,0.8-0.1,1.1c0.3-0.6,0.9-1.3,1.7-1.3c0.7,0,1,0.4,1.1,1.3c0.3-0.6,0.9-1.3,1.7-1.3
			c0.8,0,1.1,0.6,1.1,1.7v1.3c0,0.6,0,1,0.1,1.9h-1C79.4,195.1,79.4,194.7,79.4,194.1z"/>
		<path class="st3" d="M86.7,193.7c0,1.6-1,2.6-2.3,2.6c-1,0-1.7-0.6-1.9-1.5c0,0.4,0,0.7,0.1,1.3h-1V190c0-0.6,0-1-0.1-1.9h1
			c-0.1,1-0.1,1.3-0.1,1.9v2.2c0.5-0.6,1.2-1,2-1C85.7,191.1,86.7,192,86.7,193.7z M85.8,193.7c0-1.4-0.6-2.3-1.5-2.3
			c-0.7,0-1.3,0.5-1.7,1v1.4c0,1.3,0.6,2.2,1.6,2.2C85.3,196,85.8,195,85.8,193.7z"/>
		<path class="st3" d="M92.7,194.2c-0.3,1.2-1.1,2-2.4,2c-1.5,0-2.6-1-2.6-2.6s1.2-2.6,2.5-2.6c1.4,0,2.2,0.9,2.2,1.9h-3.8
			c0,0.2,0,0.4,0,0.5c0,1.2,0.6,2.4,1.9,2.4c1,0,1.6-0.7,2-1.7h0.2V194.2z M88.7,192.9h2.8c0-0.9-0.4-1.6-1.3-1.6
			C89.4,191.3,88.8,191.9,88.7,192.9z"/>
		<path class="st3" d="M96.2,191.9c-0.5-0.2-0.8-0.1-1.8,0.9v0.4v1c0,0.6,0,1.1,0.1,1.9h-1c0.1-0.8,0.1-1.3,0.1-1.9v-1
			c0-0.6,0-1.1-0.1-1.9h1c0,0.5-0.1,0.9-0.1,1.2c0.8-0.8,1.3-1.4,2.5-1.2C97,191.8,96.8,192.1,96.2,191.9z"/>
	</g>
</g>
<g>
	<g>
		<path class="st3" d="M66.9,23.7c0-2.5,1.6-4.2,3.6-4.2s3.6,1.7,3.6,4.2s-1.6,4.2-3.6,4.2S66.9,26.2,66.9,23.7z M73,23.7
			c0-2.3-0.8-4-2.5-4s-2.5,1.7-2.5,4s0.8,4,2.5,4C72.1,27.7,73,26,73,23.7z"/>
		<path class="st3" d="M81.3,25.6c0,1.5-1.4,2.3-3,2.3s-3-0.8-3-2.3c0-1.3,1-2,2.2-2.3c-1.1-0.3-1.7-1.1-1.7-1.9
			c0-1,0.8-1.9,2.5-1.9s2.5,0.9,2.5,1.9c0,0.8-0.6,1.6-1.7,1.9C80.4,23.5,81.3,24.3,81.3,25.6z M80.3,25.6c0-1.3-0.8-2.2-2-2.2
			s-2,0.9-2,2.2c0,1.3,0.8,2.2,2,2.2C79.5,27.7,80.3,26.9,80.3,25.6z M78.3,23.2c1.1,0,1.6-1,1.6-1.8s-0.5-1.8-1.6-1.8
			s-1.6,0.9-1.6,1.8C76.7,22.2,77.2,23.2,78.3,23.2z"/>
	</g>
</g>
</svg>
