<?xml version="1.0" encoding="utf-8"?>
<!-- Generator: Adobe Illustrator 26.0.1, SVG Export Plug-In . SVG Version: 6.00 Build 0)  -->
<svg version="1.1" id="레이어_1" xmlns="http://www.w3.org/2000/svg" xmlns:xlink="http://www.w3.org/1999/xlink" x="0px"
	 y="0px" viewBox="0 0 148.1 217.9" style="enable-background:new 0 0 148.1 217.9;" xml:space="preserve">
<style type="text/css">
	.st0{fill:#F7F0EB;}
	.st1{fill:none;stroke:#FF3B01;stroke-width:0.5;stroke-miterlimit:10;}
	.st2{fill:#F7F0EB;stroke:#FF3B01;stroke-width:0.5;stroke-miterlimit:10;}
	.st3{fill:#424242;}
</style>
<rect class="st0" width="148.1" height="217.9"/>
<image style="overflow:visible;enable-background:new    ;" width="274" height="274" xlink:href="../wk10_아카이빙/누끼-ugly/u감자.png"  transform="matrix(0.4786 0 0 0.4786 8.491 43.3983)">
</image>
<g>
	<polygon class="st1" points="129.7,8 18.4,8 7.1,19.3 7.1,198.6 18.4,209.9 129.7,209.9 141,198.6 141,19.3 	"/>
	<path class="st2" d="M141,173.1L141,173.1L141,173.1c-0.2,3.4-1.6,6.1-3.3,6.6c1.7,0.5,3.1,3.2,3.3,6.6l0,0l0,0
		c0.2-3.4,1.6-6.1,3.3-6.6C142.6,179.3,141.3,176.6,141,173.1z"/>
	<path class="st2" d="M7.1,31.6L7.1,31.6L7.1,31.6c-0.2,3.4-1.6,6.1-3.3,6.6c1.7,0.5,3.1,3.2,3.3,6.6l0,0l0,0
		c0.2-3.4,1.6-6.1,3.3-6.6C8.7,37.7,7.3,35,7.1,31.6z"/>
</g>
<g>
	<g>
		<path class="st3" d="M63.6,193.7c0,1.6-1.1,2.6-2.2,2.6c-0.8,0-1.5-0.5-2-1v1.3c0,0.6,0,1.1,0.1,1.9h-1c0.1-0.8,0.1-1.3,0.1-1.9
			v-3.2c0-0.6,0-1.1-0.1-1.9h1c0,0.5-0.1,0.9-0.1,1.3c0.2-0.8,0.9-1.5,1.9-1.5C62.6,191.1,63.6,192,63.6,193.7z M62.6,193.7
			c0-1.3-0.4-2.3-1.6-2.3c-1,0-1.6,0.9-1.6,2.2v1.4c0.4,0.5,1.1,1,1.7,1C62.1,196,62.6,195.1,62.6,193.7z"/>
		<path class="st3" d="M64.5,193.7c0-1.5,1.2-2.6,2.8-2.6c1.6,0,2.8,1,2.8,2.6c0,1.5-1.2,2.6-2.8,2.6
			C65.7,196.2,64.5,195.2,64.5,193.7z M69.1,193.7c0-1.4-0.6-2.4-1.8-2.4c-1.2,0-1.8,1-1.8,2.4s0.6,2.4,1.8,2.4
			C68.5,196.1,69.1,195.1,69.1,193.7z"/>
		<path class="st3" d="M74,194c-0.2,1.8-0.7,2.3-1.5,2.3s-1.2-0.4-1.2-1.6v-3.2h-1.1v-0.2h0.1c1.3,0,1.3-1,1.3-2.1h0.7
			c0,0.8-0.1,1.7-1,2.1h2.3v0.2h-1.4v3.3c0,1,0.2,1.3,0.6,1.3c0.5,0,0.8-0.5,1-2H74V194z"/>
		<path class="st3" d="M78.5,196c0-0.5-0.1-0.8-0.1-1.2c-0.2,0.8-0.8,1.4-1.9,1.4c-0.8,0-1.6-0.4-1.6-1.3c0-1.1,1.1-1.4,2.1-1.6
			c0.8-0.1,1.4-0.3,1.4-0.9c0-0.7-0.3-1.1-0.9-1.1c-1,0-1.3,0.6-1.5,0.9c-0.3,0.4-0.8,0.3-0.9-0.2c0.7-0.5,1.6-0.9,2.6-0.9
			s1.7,0.4,1.7,1.5v1.5c0,0.7,0,1.2,0.2,1.9L78.5,196L78.5,196z M78.4,194v-1.1c-0.2,0.3-0.7,0.4-1.3,0.5c-0.9,0.2-1.3,0.6-1.3,1.4
			c0,0.7,0.4,1.1,1,1.1C77.8,195.9,78.4,195.1,78.4,194z"/>
		<path class="st3" d="M83.5,194c-0.2,1.8-0.7,2.3-1.5,2.3s-1.2-0.4-1.2-1.6v-3.2h-1.1v-0.2H80c1.3,0,1.3-1,1.3-2.1H82
			c0,0.8-0.1,1.7-1,2.1h2.3v0.2h-1.4v3.3c0,1,0.2,1.3,0.6,1.3c0.5,0,0.8-0.5,1-2l0,0V194z"/>
		<path class="st3" d="M84.3,193.7c0-1.5,1.2-2.6,2.8-2.6c1.6,0,2.8,1,2.8,2.6c0,1.5-1.2,2.6-2.8,2.6
			C85.4,196.2,84.3,195.2,84.3,193.7z M88.9,193.7c0-1.4-0.6-2.4-1.8-2.4c-1.2,0-1.8,1-1.8,2.4s0.6,2.4,1.8,2.4
			C88.3,196.1,88.9,195.1,88.9,193.7z"/>
	</g>
</g>
<g>
	<g>
		<path class="st3" d="M66.8,23.7c0-2.5,1.6-4.2,3.6-4.2s3.6,1.7,3.6,4.2s-1.6,4.2-3.6,4.2S66.8,26.2,66.8,23.7z M72.9,23.7
			c0-2.3-0.8-4-2.5-4s-2.5,1.7-2.5,4s0.8,4,2.5,4S72.9,26,72.9,23.7z"/>
		<path class="st3" d="M81.3,23.4c0,2.7-1.4,4.5-3.3,4.5c-1.1,0-1.8-0.5-2.4-1.3l0.8-0.4c0.3,0.7,0.7,1.5,1.6,1.5
			c1.4,0,2.2-1.6,2.2-3.9c-0.7,0.7-1.5,1-2.4,1c-1.2,0-2.6-0.8-2.6-2.6s1.5-2.7,2.9-2.7C80.3,19.5,81.3,21,81.3,23.4z M80.2,23.6
			v-0.2c0-2.3-0.4-3.8-2.1-3.8c-1.1,0-1.9,0.8-1.9,2.5s0.7,2.5,1.8,2.5C78.8,24.6,79.4,24.3,80.2,23.6z"/>
	</g>
</g>
</svg>
